<svg width="256" height="256" viewBox="0 0 256 256" fill="none" xmlns="http://www.w3.org/2000/svg">
<g clip-path="url(#clip0_305_11)">
<rect width="256" height="256" rx="128" fill="white"/>
<path d="M128 0C57.3143 0 0 57.3143 0 128C0 198.686 57.3143 256 128 256C198.686 256 256 198.686 256 128C256 57.3143 198.686 0 128 0ZM189.514 96.4857C189.6 97.8286 189.6 99.2286 189.6 100.6C189.6 142.543 157.657 190.857 99.2857 190.857C81.2857 190.857 64.6 185.629 50.5429 176.629C53.1143 176.914 55.5714 177.029 58.2 177.029C73.0571 177.029 86.7143 172 97.6 163.486C83.6571 163.2 71.9429 154.057 67.9429 141.486C72.8286 142.2 77.2286 142.2 82.2571 140.914C75.0779 139.456 68.625 135.557 63.9948 129.88C59.3645 124.202 56.8425 117.097 56.8571 109.771V109.371C61.0571 111.743 66 113.2 71.1714 113.4C66.8241 110.503 63.2588 106.577 60.7918 101.972C58.3247 97.3671 57.0321 92.2244 57.0286 87C57.0286 81.0857 58.5714 75.6857 61.3429 71C69.3115 80.8096 79.2552 88.8326 90.5276 94.5476C101.8 100.263 114.149 103.542 126.771 104.171C122.286 82.6 138.4 65.1429 157.771 65.1429C166.914 65.1429 175.143 68.9714 180.943 75.1429C188.114 73.8 194.971 71.1143 201.086 67.5143C198.714 74.8571 193.743 81.0571 187.143 84.9714C193.543 84.2857 199.714 82.5143 205.429 80.0286C201.114 86.3714 195.714 92 189.514 96.4857Z" fill="#1F9CEB"/>
</g>
<defs>
<clipPath id="clip0_305_11">
<rect width="256" height="256" rx="128" fill="white"/>
</clipPath>
</defs>
</svg>
