<svg width="563" height="560" viewBox="0 0 563 560" fill="none" xmlns="http://www.w3.org/2000/svg">
<path d="M278.772 456.723C276.823 485.207 285.788 542.355 295.863 544.873C308.456 548.021 330.493 443.23 344.435 448.177C358.378 453.125 386.353 521.41 401.553 518.338C423.778 513.846 402.745 412.136 410.998 408.599C424.288 402.905 498.9 445.991 511.292 424.791C522.322 405.92 427.449 328.935 456.423 333.941C487.449 339.302 549.045 347.983 547.722 324.047C547.722 306.507 455.404 275.594 462.719 270.977C470.074 266.334 552.967 234.589 547.722 223.753C541.768 211.454 449.634 208.023 447.428 203.964C442.202 194.35 516.654 140.527 508.232 133.354C485.554 114.038 404.588 155.895 410.998 144.148C419.995 127.661 433.935 43.404 412.797 48.801C391.659 54.198 342.636 122.11 332.742 112.216C322.847 102.321 325.546 10.5725 303.958 14.6202C282.37 18.668 278.772 104.57 257.634 102.321C236.496 100.072 197.368 19.1177 189.272 32.1604C181.177 45.2031 196.468 135.153 176.23 136.952C155.991 138.751 102.021 58.2458 101.572 85.2307C101.122 112.216 142.499 181.027 127.207 188.223C111.916 195.419 65.5916 153.592 51.6495 157.64C37.7073 161.688 122.826 237.577 110.566 235.896C95.887 233.884 8.51251 243.831 14.7701 257.484C26.2563 271.023 99.7726 282.67 107.868 282.67" stroke="#92BFF4" stroke-opacity="0.33" stroke-width="28.7837" stroke-linecap="round"/>
<path d="M285.577 395.114C341.383 390.034 442.544 343.957 389.169 235.336C325.562 105.892 204.668 192.633 188.366 227.962C181.312 243.25 148.22 399.442 320.435 340.544C393.06 315.834 357.403 221.27 320.435 212.229C295.283 202.328 217.512 227.647 222.733 277.615C226.691 315.496 270.014 321.021 295.887 307.113C304.56 304.655 324.362 285.973 320.435 269.75C316.507 247.725 283.043 258.934 274.205 263.358" stroke="#92BFF4" stroke-opacity="0.33" stroke-width="28.7837" stroke-linecap="round"/>
<path d="M279.095 433.207C277.405 457.907 285.179 507.463 293.915 509.647C304.835 512.377 323.945 421.507 336.035 425.797C348.125 430.087 372.384 489.301 385.565 486.637C404.837 482.742 386.599 394.544 393.755 391.477C405.279 386.539 469.979 423.902 480.725 405.517C490.29 389.154 408.021 322.396 433.145 326.737C460.049 331.386 513.463 338.914 512.315 318.157C512.315 302.947 432.261 276.142 438.605 272.137C444.983 268.112 516.863 240.584 512.315 231.187C507.153 220.522 427.258 217.547 425.345 214.027C420.814 205.69 485.374 159.017 478.072 152.797C458.406 136.048 388.196 172.344 393.755 162.157C401.557 147.861 413.645 74.7973 395.315 79.4773C376.985 84.1573 334.475 143.047 325.895 134.467C317.315 125.887 319.655 46.3273 300.935 49.8373C282.215 53.3473 279.095 127.837 260.765 125.887C242.435 123.937 208.505 53.7373 201.485 65.0473C194.465 76.3573 207.725 154.357 190.175 155.917C172.625 157.477 125.825 87.6673 125.435 111.067C125.045 134.467 160.925 194.137 147.665 200.377C134.405 206.617 94.2351 170.347 82.1451 173.857C70.0551 177.367 143.866 243.175 133.235 241.717C120.506 239.972 44.7388 248.598 50.1651 260.437C60.1253 272.178 123.875 282.277 130.895 282.277" stroke="url(#paint0_linear_301_4)" stroke-width="24.96" stroke-linecap="round"/>
<path d="M284.997 379.778C333.389 375.372 421.112 335.416 374.828 241.225C319.67 128.978 214.836 204.195 200.7 234.831C194.583 248.088 165.888 383.53 315.224 332.457C378.201 311.029 347.281 229.028 315.224 221.188C293.413 212.603 225.974 234.558 230.502 277.888C233.934 310.737 271.501 315.528 293.937 303.467C301.458 301.336 318.63 285.136 315.224 271.068C311.818 251.969 282.8 261.689 275.136 265.525" stroke="url(#paint1_linear_301_4)" stroke-width="24.96" stroke-linecap="round"/>
<defs>
<linearGradient id="paint0_linear_301_4" x1="646.085" y1="-108.503" x2="83.5574" y2="509.708" gradientUnits="userSpaceOnUse">
<stop offset="0.12" stop-color="#B7D4F7"/>
<stop offset="0.715" stop-color="#5995DC"/>
</linearGradient>
<linearGradient id="paint1_linear_301_4" x1="435.875" y1="98.9773" x2="220.231" y2="379.778" gradientUnits="userSpaceOnUse">
<stop offset="0.12" stop-color="#B7D4F7"/>
<stop offset="0.715" stop-color="#5995DC"/>
</linearGradient>
</defs>
</svg>
